<?xml version="1.0" encoding="UTF-8"?>
<svg width="1200" height="900" xmlns="http://www.w3.org/2000/svg">
  <defs>
    <style>
      .building-outline { fill: #f5f5f5; stroke: #333; stroke-width: 3; }
      .corridor { fill: #e0e0e0; stroke: #999; stroke-width: 1; }
      .room { fill: #fff; stroke: #666; stroke-width: 2; }
      .lab { fill: #e3f2fd; stroke: #1976d2; stroke-width: 2; }
      .office { fill: #f3e5f5; stroke: #7b1fa2; stroke-width: 2; }
      .facility { fill: #fff3e0; stroke: #e65100; stroke-width: 2; }
      .elevator { fill: #ffebee; stroke: #c62828; stroke-width: 2; }
      .stairs { fill: #f1f8e9; stroke: #558b2f; stroke-width: 2; }
      .grid-line { stroke: #ddd; stroke-width: 0.5; opacity: 0.3; }
      .label { font-family: Arial, sans-serif; font-size: 14px; fill: #333; font-weight: bold; }
      .floor-label { font-family: Arial, sans-serif; font-size: 24px; fill: #1976d2; font-weight: bold; }
      .marker-circle { stroke: #fff; stroke-width: 2; }
    </style>
  </defs>
  
  <!-- Background -->
  <rect width="1200" height="900" fill="#fafafa"/>
  
  <!-- Grid -->
  <g id="grid">
    <line class="grid-line" x1="0" y1="0" x2="0" y2="900"/><line class="grid-line" x1="100" y1="0" x2="100" y2="900"/><line class="grid-line" x1="200" y1="0" x2="200" y2="900"/><line class="grid-line" x1="300" y1="0" x2="300" y2="900"/><line class="grid-line" x1="400" y1="0" x2="400" y2="900"/><line class="grid-line" x1="500" y1="0" x2="500" y2="900"/><line class="grid-line" x1="600" y1="0" x2="600" y2="900"/><line class="grid-line" x1="700" y1="0" x2="700" y2="900"/><line class="grid-line" x1="800" y1="0" x2="800" y2="900"/><line class="grid-line" x1="900" y1="0" x2="900" y2="900"/><line class="grid-line" x1="1000" y1="0" x2="1000" y2="900"/><line class="grid-line" x1="1100" y1="0" x2="1100" y2="900"/>
    <line class="grid-line" x1="0" y1="0" x2="1200" y2="0"/><line class="grid-line" x1="0" y1="100" x2="1200" y2="100"/><line class="grid-line" x1="0" y1="200" x2="1200" y2="200"/><line class="grid-line" x1="0" y1="300" x2="1200" y2="300"/><line class="grid-line" x1="0" y1="400" x2="1200" y2="400"/><line class="grid-line" x1="0" y1="500" x2="1200" y2="500"/><line class="grid-line" x1="0" y1="600" x2="1200" y2="600"/><line class="grid-line" x1="0" y1="700" x2="1200" y2="700"/><line class="grid-line" x1="0" y1="800" x2="1200" y2="800"/>
  </g>
  
  <!-- Building Outline -->
  <rect class="building-outline" x="20" y="50" width="1160" height="800"/>
  
  <!-- Main Corridor (horizontal) -->
  <rect class="corridor" x="20" y="420" width="1160" height="60"/>
  
  <!-- Floor-specific layout -->
  <!-- Labs -->
    <rect class="lab" x="100" y="370" width="200" height="120" rx="5"/>
    <text class="label" x="200" y="430" text-anchor="middle">Lab 501</text>
    
    <rect class="lab" x="400" y="370" width="200" height="120" rx="5"/>
    <text class="label" x="500" y="430" text-anchor="middle">Lab 502</text>
    
    <!-- Offices on right side -->
    <rect class="office" x="800" y="370" width="200" height="120" rx="5"/>
    <text class="label" x="900" y="430" text-anchor="middle">Office 503</text>
    
    <!-- Elevator Bank (same position on all floors) -->
    <rect class="elevator" x="520" y="410" width="80" height="80" rx="5"/>
    <text class="label" x="560" y="455" text-anchor="middle">Elevator</text>
    
    <!-- Stairs -->
    <rect class="stairs" x="610" y="410" width="60" height="80" rx="5"/>
    <text class="label" x="640" y="455" text-anchor="middle">Stairs</text>
  <!-- Marker for hsitp_lab_501 -->
    <circle cx="300" cy="570" r="12" fill="#00BCD4" class="marker-circle"/>
    <text x="300" y="574" text-anchor="middle" font-size="16">🔬</text>
    <text class="label" x="300" y="605" text-anchor="middle" font-size="11">Wet Lab 501</text>
  <!-- Marker for hsitp_office_503 -->
    <circle cx="900" cy="570" r="12" fill="#3F51B5" class="marker-circle"/>
    <text x="900" y="574" text-anchor="middle" font-size="16">🚪</text>
    <text class="label" x="900" y="605" text-anchor="middle" font-size="11">Office 503</text>
  
  <!-- Floor Label -->
  <text class="floor-label" x="600" y="30" text-anchor="middle">5th Floor - HSITP Building 8</text>
  
  <!-- Scale indicator -->
  <text x="1050" y="880" font-family="Arial" font-size="12" fill="#666">Scale: 12px/m</text>
</svg>